<?xml version="1.0" encoding="utf-8"?>
<!-- Generator: Adobe Illustrator 23.0.3, SVG Export Plug-In . SVG Version: 6.00 Build 0)  -->
<svg version="1.1" id="Layer_1" xmlns="http://www.w3.org/2000/svg" xmlns:xlink="http://www.w3.org/1999/xlink" x="0px" y="0px"
	 viewBox="0 0 360 360" style="enable-background:new 0 0 360 360;" xml:space="preserve">
<style type="text/css">
	.st0{fill:#FFFFFF;}
	.st1{fill:none;stroke:#798860;stroke-width:7;stroke-miterlimit:10;}
	.st2{fill:#798860;}
	.st3{stroke:#000000;stroke-width:0.5;stroke-miterlimit:10;}
	.st4{stroke:#000000;stroke-width:0.25;stroke-miterlimit:10;}
</style>
<g id="XMLID_141_">
	<g id="XMLID_145_">
		<g id="XMLID_146_">
			<g id="XMLID_155_">
				<g id="XMLID_156_">
					<g id="XMLID_157_">
						<g id="XMLID_158_">
							<path id="XMLID_159_" d="M160.14,120.42c-0.02-8.09,10.1-12.68,21.27-12.71c10.87-0.02,17.83,3.3,17.83,3.3l0.02,8.75
								l-4.77,0.01c-0.64-3.97-5.56-6.94-12.59-6.92c-5.95,0.01-10.67,2.19-10.36,5.23c0.57,5.59,26.98,5.23,30.58,17.63
								l-19.91,0.04C173.07,133.43,160.16,131.01,160.14,120.42z M139.05,108.67l-28.02,0.05l0,2.49l3.69,2.12l0.04,22.55
								l12.28-0.02l-0.04-21.5c1,0,4.37-0.01,7.79-0.01c10.05-0.02,11.63,3.89,11.63,15.34c0.01,2.35-0.06,4.39-0.24,6.14
								l12.09-0.02c0.4-1.82,0.63-3.84,0.62-6.07C158.87,113.56,147.19,108.66,139.05,108.67z M218.51,132.88
								c-0.01-7.16-0.03-14.95-0.04-19.75l3.69-2.13l0-2.49l-19.84,0.04l0,2.49l3.69,2.12c0,0,0.03,14,0.04,22.3
								c0,0.08,0.01,0.17,0.01,0.25l12.54-0.02C218.54,134.84,218.51,133.9,218.51,132.88z M189.12,141.6l-2.56,0.01
								c0,0-0.99,4.85-8.17,4.86c-5.99,0.01-10.41-2.4-12.89-7.47l-4.79,0.01l0.02,8.94c0,0,6.94,3.76,19.25,3.74
								c8.87-0.02,22.3-2.98,22.54-12.75l-12.74,0.03C189.74,139.62,189.6,140.58,189.12,141.6z M144.53,141.5l-3.78,0.01
								c0,0-1.78,3.57-5.38,3.57c-1.44,0-2.97,0.01-4.33,0.01c-2.9,0.01-3.96-3.36-3.99-3.43v0l-12.28,0.02l0.01,4.62l-3.68,2.14
								l0.01,2.49l28.02-0.05c6.31-0.01,14.73-2.99,18.18-11.88l-11.72,0.02C145.33,139.98,144.98,140.8,144.53,141.5z
								 M232.59,108.49l0.01,2.49l3.37,1.94l0.04,22.74l12.45-0.02l-0.04-22.55l3.68-2.14l-0.01-2.49L232.59,108.49z M248.46,141.43
								l-12.45,0.02l0,0.01c-0.07,0.23-1.14,3.43-3.96,3.43l-3.84,0.01c-4.55,0.01-5.32-3.55-5.32-3.55l-2.97,0.01
								c-0.37-0.62-0.67-1.43-0.9-2.47l-12.6,0.02c1.51,6.83,7.7,11.82,18.93,11.8l26.8-0.05l0-2.49l-3.69-2.12L248.46,141.43z"/>
						</g>
					</g>
				</g>
			</g>
			<g id="XMLID_147_">
				<g id="XMLID_148_">
					<g id="XMLID_149_">
						<g id="XMLID_150_">
							<path id="XMLID_151_" d="M189.12,141.6l-2.56,0.01c0,0-0.99,4.85-8.17,4.86c-5.99,0.01-10.41-2.4-12.89-7.47l-4.79,0.01
								l0.02,8.94c0,0,6.94,3.76,19.25,3.74c8.87-0.02,22.3-2.98,22.54-12.75l-12.74,0.03C189.74,139.62,189.6,140.58,189.12,141.6z
								 M144.53,141.5l-3.78,0.01c0,0-1.78,3.57-5.38,3.57c-1.44,0-2.97,0.01-4.33,0.01c-2.9,0.01-3.96-3.36-3.99-3.43v0
								l-12.28,0.02l0.01,4.62l-3.68,2.14l0.01,2.49l28.02-0.05c6.31-0.01,14.73-2.99,18.18-11.88l-11.72,0.02
								C145.33,139.98,144.98,140.8,144.53,141.5z M248.46,141.43l-12.45,0.02l0,0.01c-0.07,0.23-1.14,3.43-3.96,3.43l-3.84,0.01
								c-4.55,0.01-5.32-3.55-5.32-3.55l-2.97,0.01c-0.37-0.62-0.67-1.43-0.9-2.47l-12.6,0.02c1.51,6.83,7.7,11.82,18.93,11.8
								l26.8-0.05l0-2.49l-3.69-2.12L248.46,141.43z"/>
						</g>
					</g>
				</g>
			</g>
		</g>
	</g>
	<path id="XMLID_142_" d="M261.61,146.97v0.73h-1.4v3.66h-0.87v-3.66h-1.4v-0.73H261.61z M266.36,151.36l-0.16-2.58
		c-0.02-0.34-0.02-0.76-0.03-1.23h-0.05c-0.11,0.39-0.24,0.9-0.37,1.31l-0.79,2.44h-0.9l-0.79-2.5c-0.08-0.34-0.21-0.86-0.31-1.24
		h-0.05c0,0.4-0.02,0.82-0.03,1.23l-0.16,2.58h-0.84l0.32-4.39h1.31l0.76,2.15c0.1,0.34,0.18,0.66,0.29,1.11h0.02
		c0.11-0.4,0.21-0.77,0.31-1.1l0.76-2.16h1.26l0.34,4.39H266.36z"/>
</g>
<g>
	<g>
		<path d="M39.16,159.06l-1.27,1.61c-1.43-1.45-3.43-2.32-5.46-2.32c-4.17,0-7.52,3.22-7.52,7.29c0,4.04,3.35,7.29,7.52,7.29
			c2.03,0,4.01-0.84,5.46-2.22l1.29,1.45c-1.82,1.72-4.3,2.85-6.86,2.85c-5.33,0-9.56-4.14-9.56-9.37c0-5.17,4.28-9.27,9.64-9.27
			C34.94,156.36,37.4,157.39,39.16,159.06z"/>
		<path d="M58.81,165.66c0,5.2-4.28,9.34-9.66,9.34c-5.41,0-9.69-4.14-9.69-9.34c0-5.23,4.28-9.29,9.69-9.29
			C54.53,156.36,58.81,160.46,58.81,165.66z M41.6,165.66c0,4.07,3.43,7.31,7.55,7.31s7.5-3.25,7.5-7.31s-3.38-7.29-7.5-7.29
			S41.6,161.59,41.6,165.66z"/>
		<path d="M78.05,174.89l-0.03-15.23l-6.73,13.28h-1.27l-6.71-13.28v15.23h-2.01v-18.48h2.61l6.76,13.3l6.73-13.3h2.59v18.48H78.05z
			"/>
		<path d="M91.23,156.42c4.57,0,7.21,2.27,7.21,6.2c0,4.09-2.64,6.44-7.21,6.44H86.4v5.83h-2.11v-18.48H91.23z M86.4,167.03h4.75
			c3.33,0,5.25-1.48,5.25-4.36c0-2.8-1.93-4.22-5.25-4.22H86.4V167.03z"/>
		<path d="M115.7,167.29c0,4.8-2.9,7.71-7.73,7.71c-4.86,0-7.79-2.9-7.79-7.71v-10.88h2.11v10.88c0,3.59,2.17,5.68,5.68,5.68
			s5.62-2.09,5.62-5.68v-10.88h2.11V167.29z"/>
		<path d="M125.16,158.45v16.45h-2.11v-16.45h-6.02v-2.03h14.18v2.03H125.16z"/>
		<path d="M132.92,174.89v-18.48h2.11v18.48H132.92z"/>
		<path d="M152.48,174.89l-11.09-14.84v14.84h-2.11v-18.48h2.19l11.09,14.86v-14.86h2.09v18.48H152.48z"/>
		<path d="M173.68,165.87v6.7c-1.82,1.45-4.38,2.43-6.86,2.43c-5.36,0-9.64-4.14-9.64-9.34s4.3-9.29,9.74-9.29
			c2.56,0,5.04,0.98,6.81,2.53l-1.21,1.58c-1.5-1.35-3.54-2.14-5.6-2.14c-4.22,0-7.6,3.25-7.6,7.31c0,4.09,3.41,7.34,7.63,7.34
			c1.66,0,3.43-0.58,4.86-1.56v-5.57H173.68z"/>
		<path d="M184.96,170.22l-2.06,4.67h-2.24l8.29-18.48h2.19l8.26,18.48h-2.3l-2.06-4.67H184.96z M189.98,158.82l-4.12,9.37h8.29
			L189.98,158.82z"/>
		<path d="M214.16,174.89l-11.09-14.84v14.84h-2.11v-18.48h2.19l11.09,14.86v-14.86h2.09v18.48H214.16z"/>
		<path d="M228.07,156.42c5.39,0,9.5,3.99,9.5,9.24s-4.14,9.24-9.58,9.24h-7.39v-18.48H228.07z M222.72,172.89h5.38
			c4.12,0,7.34-3.09,7.34-7.21c0-4.14-3.27-7.23-7.42-7.23h-5.31V172.89z"/>
		<path d="M253.45,156.42c5.39,0,9.5,3.99,9.5,9.24s-4.14,9.24-9.58,9.24h-7.39v-18.48H253.45z M248.09,172.89h5.38
			c4.12,0,7.34-3.09,7.34-7.21c0-4.14-3.27-7.23-7.42-7.23h-5.31V172.89z"/>
		<path d="M267.57,158.45v6.07h9.32v2.03h-9.32v6.34h10.77v2.01h-12.88v-18.48H278v2.03H267.57z"/>
		<path d="M292.65,158.05l-0.9,1.98c-1.66-1.11-3.62-1.56-5.09-1.56c-2.38,0-3.93,0.9-3.93,2.46c0,4.75,10.4,2.27,10.37,8.98
			c0,3.09-2.72,5.07-6.68,5.07c-2.69,0-5.33-1.16-7.07-2.82l0.95-1.9c1.72,1.66,4.07,2.61,6.15,2.61c2.67,0,4.33-1.08,4.33-2.85
			c0.03-4.86-10.38-2.27-10.38-8.9c0-2.9,2.56-4.78,6.39-4.78C288.93,156.34,291.12,157.02,292.65,158.05z"/>
		<path d="M296.09,174.89v-18.48h2.11v18.48H296.09z"/>
		<path d="M317.21,165.87v6.7c-1.82,1.45-4.38,2.43-6.86,2.43c-5.36,0-9.64-4.14-9.64-9.34s4.3-9.29,9.74-9.29
			c2.56,0,5.04,0.98,6.81,2.53l-1.21,1.58c-1.5-1.35-3.54-2.14-5.6-2.14c-4.22,0-7.6,3.25-7.6,7.31c0,4.09,3.41,7.34,7.63,7.34
			c1.66,0,3.43-0.58,4.86-1.56v-5.57H317.21z"/>
		<path d="M334.18,174.89l-11.09-14.84v14.84h-2.11v-18.48h2.19l11.09,14.86v-14.86h2.08v18.48H334.18z"/>
	</g>
</g>
</svg>
