<?xml version="1.0" encoding="utf-8"?>
<!-- Generator: Adobe Illustrator 23.0.3, SVG Export Plug-In . SVG Version: 6.00 Build 0)  -->
<svg version="1.1" id="Layer_1" xmlns="http://www.w3.org/2000/svg" xmlns:xlink="http://www.w3.org/1999/xlink" x="0px" y="0px"
	 viewBox="0 0 360 360" style="enable-background:new 0 0 360 360;" xml:space="preserve">
<style type="text/css">
	.st0{fill:#FFFFFF;}
	.st1{fill:none;stroke:#798860;stroke-width:7;stroke-miterlimit:10;}
	.st2{fill:#798860;}
	.st3{stroke:#000000;stroke-width:0.5;stroke-miterlimit:10;}
	.st4{stroke:#000000;stroke-width:0.25;stroke-miterlimit:10;}
</style>
<g>
	<path d="M147.48,130.98c8.57,0,9.78-4.71,9.78-8.93c0-3.38-0.48-6.76-0.97-10.14c-0.48-3.38-0.97-6.64-0.97-10.02
		c0-11.11,7.24-15.82,17.51-15.82h2.54v6.64h-2.17c-7.12,0-9.54,3.86-9.54,10.38c0,2.78,0.36,5.67,0.85,8.57
		c0.48,3.02,0.84,5.92,0.84,9.18c0.12,7.73-3.26,11.59-8.69,13.04v0.24c5.43,1.33,8.81,5.43,8.69,13.16c0,3.26-0.36,6.28-0.84,9.17
		c-0.48,3.02-0.85,5.79-0.85,8.69c0,6.76,2.78,10.5,9.54,10.5h2.17v6.64h-2.54c-10.02,0-17.51-4.35-17.51-16.54
		c0-3.26,0.48-6.64,0.97-9.9c0.48-3.26,0.97-6.52,0.97-9.78c0-3.74-1.21-8.93-9.78-8.93V130.98z"/>
	<path d="M209.29,137.13c-8.57,0-9.78,5.19-9.78,8.93c0,3.26,0.48,6.52,0.97,9.78c0.48,3.26,0.97,6.64,0.97,9.9
		c0,12.19-7.61,16.54-17.5,16.54h-2.54v-6.64h2.05c6.76-0.12,9.66-3.74,9.66-10.5c0-2.9-0.48-5.67-0.84-8.69
		c-0.48-2.9-0.97-5.92-0.97-9.17c0-7.73,3.38-11.83,8.69-13.16v-0.24c-5.31-1.45-8.69-5.31-8.69-13.04c0-3.26,0.48-6.16,0.97-9.18
		c0.36-2.9,0.84-5.79,0.84-8.57c0-6.52-2.54-10.26-9.54-10.38h-2.17v-6.64h2.41c10.26,0,17.63,4.71,17.63,15.82
		c0,3.38-0.48,6.64-0.97,10.02c-0.48,3.38-0.97,6.76-0.97,10.14c0,4.23,1.21,8.93,9.78,8.93V137.13z"/>
</g>
<g>
	<path d="M181.58,103.27c0,8.57,4.71,9.78,8.93,9.78c3.38,0,6.76-0.48,10.14-0.97c3.38-0.48,6.64-0.97,10.02-0.97
		c11.11,0,15.82,7.24,15.82,17.51v2.54h-6.64v-2.17c0-7.12-3.86-9.54-10.38-9.54c-2.78,0-5.67,0.36-8.57,0.85
		c-3.02,0.48-5.92,0.84-9.18,0.84c-7.73,0.12-11.59-3.26-13.04-8.69h-0.24c-1.33,5.43-5.43,8.81-13.16,8.69
		c-3.26,0-6.28-0.36-9.17-0.84c-3.02-0.48-5.79-0.85-8.69-0.85c-6.76,0-10.5,2.78-10.5,9.54v2.17h-6.64v-2.54
		c0-10.02,4.35-17.51,16.54-17.51c3.26,0,6.64,0.48,9.9,0.97c3.26,0.48,6.52,0.97,9.78,0.97c3.74,0,8.93-1.21,8.93-9.78H181.58z"/>
	<path d="M175.42,165.08c0-8.57-5.19-9.78-8.93-9.78c-3.26,0-6.52,0.48-9.78,0.97c-3.26,0.48-6.64,0.97-9.9,0.97
		c-12.19,0-16.54-7.61-16.54-17.5v-2.54h6.64v2.05c0.12,6.76,3.74,9.66,10.5,9.66c2.9,0,5.67-0.48,8.69-0.84
		c2.9-0.48,5.92-0.97,9.17-0.97c7.73,0,11.83,3.38,13.16,8.69h0.24c1.45-5.31,5.31-8.69,13.04-8.69c3.26,0,6.16,0.48,9.18,0.97
		c2.9,0.36,5.79,0.84,8.57,0.84c6.52,0,10.26-2.54,10.38-9.54v-2.17h6.64v2.41c0,10.26-4.71,17.63-15.82,17.63
		c-3.38,0-6.64-0.48-10.02-0.97c-3.38-0.48-6.76-0.97-10.14-0.97c-4.23,0-8.93,1.21-8.93,9.78H175.42z"/>
</g>
<circle cx="178.38" cy="134.43" r="6.52"/>
<g>
	<path d="M175.54,196.02c-33.76-1.49-60.77-29.42-60.77-63.54c0-34.12,27.01-62.05,60.77-63.54v-7
		c-37.62,1.5-67.77,32.56-67.77,70.54c0,37.98,30.15,69.04,67.77,70.54V196.02z"/>
	<path d="M181.14,61.93v7c33.8,1.45,60.85,29.39,60.85,63.54c0,34.15-27.05,62.09-60.85,63.54v7c37.66-1.46,67.85-32.53,67.85-70.54
		C249,94.47,218.8,63.39,181.14,61.93z"/>
</g>
<g>
	<path class="st3" d="M125.93,246.77c-1.86,1.19-5.08,1.79-8.09,1.79c-8.16,0-11.48-5.01-11.48-12.54c0-7.07,4.01-12.31,12.11-12.31
		c2.85,0,5.67,0.7,7.4,1.82v5.81l-2.82-0.2l-0.56-3.22c-0.03-0.3-0.13-0.46-0.46-0.56c-1.03-0.33-2.32-0.6-3.71-0.6
		c-4.81,0-7.89,3.18-7.89,9.25c0,6.34,2.92,9.52,7.66,9.52c1.36,0,3.02-0.13,4.11-0.56c0.33-0.1,0.46-0.2,0.53-0.63l0.53-3.05h2.69
		V246.77z"/>
	<path class="st3" d="M131.3,236.08c0-7.03,3.98-12.37,11.68-12.37c7.7,0,11.05,5.34,11.05,12.01c0,7.79-3.78,12.84-11.51,12.84
		C134.68,248.56,131.3,243.38,131.3,236.08z M150.04,236.02c0-6.1-2.72-9.09-7.1-9.09c-4.48,0-7.63,3.02-7.63,9.12
		c0,6.4,2.89,9.29,7.33,9.29C147.02,245.34,150.04,242.59,150.04,236.02z"/>
	<path class="st3" d="M158.23,248.16v-2.12l2.09-0.23c0.46-0.07,0.53-0.17,0.53-0.66v-17.95c0-0.5-0.07-0.63-0.53-0.66l-2.09-0.23
		v-2.16h10.25c8.33,0,11.91,4.48,11.91,11.64c0,7.36-3.88,12.37-12.47,12.37H158.23z M167.69,245.27c6.14,0,8.72-3.52,8.72-9.12
		c0-6.87-2.92-9.12-8.53-9.12h-3.15v18.25H167.69z"/>
	<path class="st3" d="M183.94,248.16v-2.12l2.42-0.23c0.46-0.03,0.53-0.17,0.53-0.66v-17.98c0-0.5-0.07-0.63-0.53-0.66l-2.42-0.23
		v-2.12h9.92v2.12l-2.55,0.26c-0.5,0.07-0.53,0.13-0.53,0.63v17.95c0,0.53,0.03,0.6,0.53,0.66l2.55,0.27v2.12H183.94z"/>
	<path class="st3" d="M217.07,248.16l-11.51-18.97v15.92c0,0.53,0.03,0.6,0.53,0.66l2.22,0.27v2.12h-8.53v-2.12l2.09-0.23
		c0.46-0.07,0.53-0.17,0.53-0.66v-17.98c0-0.5-0.07-0.63-0.53-0.66l-2.09-0.23v-2.16h7.2l11.25,18.91v-15.86
		c0-0.5-0.07-0.63-0.53-0.66l-2.09-0.23v-2.12h8.53v2.12l-2.22,0.26c-0.5,0.07-0.53,0.13-0.53,0.63v21H217.07z"/>
	<path class="st3" d="M249.01,239.1c-0.4,0.03-0.53,0.13-0.53,0.46v7.53c-2.25,1.09-5.51,1.46-8.19,1.46
		c-9.02,0-12.24-5.34-12.24-12.54c0-7.03,3.98-12.31,12.14-12.31c2.65,0,5.57,0.63,7.43,1.86v5.67l-2.85-0.23l-0.53-3.02
		c-0.07-0.37-0.13-0.53-0.46-0.63c-1.03-0.33-2.49-0.6-3.82-0.6c-4.84,0-7.86,3.42-7.86,9.22c0,6.1,2.95,9.55,8.39,9.55
		c1.19,0,2.72-0.17,3.68-0.4c0.3-0.07,0.46-0.17,0.46-0.56v-5.27h-4.18l0.43-2.49h9.52v2.16L249.01,239.1z"/>
</g>
<g>
	<path class="st4" d="M125.59,283.96v-1.65l11.23-15.98h-8.1c-0.3,0-0.38,0.03-0.43,0.3l-0.51,2.51l-1.84,0.08v-4.8h13.9v1.7
		l-11.15,15.93h8.64c0.3,0,0.38-0.03,0.43-0.3l0.51-2.89h1.84v5.1H125.59z"/>
	<path class="st4" d="M145.97,283.96v-1.46l1.7-0.19c0.38-0.05,0.43-0.13,0.43-0.54v-15.14c0-0.41-0.05-0.51-0.43-0.54l-1.7-0.19
		v-1.48h13.55v4.45l-1.84-0.11l-0.38-2.08c-0.05-0.27-0.16-0.35-0.46-0.35h-6.26v6.8h7.21v1.94h-7.21v6.96h6.86
		c0.3,0,0.38-0.03,0.43-0.3l0.43-2.35h1.81v4.56H145.97z"/>
	<path class="st4" d="M179.99,283.96l-9.85-16.33v14.12c0,0.43,0.03,0.49,0.43,0.54l1.81,0.22v1.46h-6.56v-1.46l1.7-0.19
		c0.38-0.05,0.43-0.13,0.43-0.54V266.6c0-0.41-0.05-0.51-0.43-0.54l-1.7-0.19v-1.48h5.29l9.61,16.22V266.6
		c0-0.41-0.05-0.51-0.43-0.54l-1.7-0.19v-1.46h6.53v1.46l-1.81,0.22c-0.4,0.05-0.43,0.11-0.43,0.51v17.36H179.99z"/>
	<path class="st4" d="M190.87,283.96v-1.46l1.7-0.19c0.38-0.05,0.43-0.13,0.43-0.54v-15.14c0-0.41-0.05-0.51-0.43-0.54l-1.7-0.19
		v-1.48h8.07c6.77,0,9.69,3.64,9.69,9.47c0,5.99-3.16,10.07-10.15,10.07H190.87z M198.46,281.99c5.16,0,7.61-2.92,7.61-7.75
		c0-6.02-2.7-7.88-7.45-7.88h-3.13v15.63H198.46z"/>
	<path class="st4" d="M212.9,274.08c0-5.72,3.24-10.01,9.39-10.01c6.13,0,8.88,4.29,8.88,9.72c0,6.37-3.08,10.5-9.26,10.5
		C215.66,284.29,212.9,280.05,212.9,274.08z M228.61,274.05c0-5.18-2.46-7.91-6.37-7.91c-3.97,0-6.78,2.75-6.78,7.94
		c0,5.42,2.62,8.12,6.59,8.12C225.97,282.21,228.61,279.62,228.61,274.05z M218.11,262.5v-1.86h8.29v1.86H218.11z"/>
</g>
</svg>
